# xmcd
# 
# Track frame offsets:
#   150
#   21937
#   46471
# 
# Disc length: 869 seconds
# 
# Revision: 1
# Processed by: cddbd v1.5.1PL0 Copyright (c) Steve Scherf et al.
# Submitted via: VOLTOCDX V1.0.24 
# 
DISCID=1f036303
DTITLE=My Artist - My Title
DYEAR=2005
DGENRE=Description of the extended genre
TTITLE0=The Distance
TTITLE1=The Life
TTITLE2=Mr. Man
EXTD=Extended CD description
EXTT0=
EXTT1=
EXTT2=
PLAYORDER=
